# xmcd CD database file
#
# Track frame offsets:
#	150
#	14076
#	30222
#	46367
#	51337
#	68368
#	95153
#	100840
#	114621
#	130504
#	136755
#	152919
#	162905
#	181776
#	204728
#	233780
#	247485
#	260171
#
# Disc length: 3614 seconds
#
# Revision: 0
# Processed by: cddbd v1.5.1PL2 Copyright (c) Steve Scherf et al.
# Submitted via: CDex 1.70beta2
#
DISCID=fb0e1c12
DTITLE=Birdy Nam Nam - Birdy Nam Nam
DYEAR=2006
DGENRE=
TTITLE0=Ready for War, Ready for What?
TTITLE1=Body, Mind, Spirit...
TTITLE2=Too Much Skunk Tonight
TTITLE3=Transition
TTITLE4=Kind of Laid Back
TTITLE5=Jazz it at Home
TTITLE6=We Drummin'
TTITLE7=New Birth
TTITLE8=Escape
TTITLE9=L' ighterlude de puqlite
TTITLE10=Engineer Fear
TTITLE11=Rainstorming
TTITLE12=Il y q un cauchemard dans mon placard
TTITLE13=Migration
TTITLE14=Abbesses
TTITLE15=New Steps/Breaking Barriers
TTITLE16=From Here to There
TTITLE17=Live Jam Session
EXTD=YEAR: 2006
EXTT0=
EXTT1=
EXTT2=
EXTT3=
EXTT4=
EXTT5=
EXTT6=
EXTT7=
EXTT8=
EXTT9=
EXTT10=
EXTT11=
EXTT12=
EXTT13=
EXTT14=
EXTT15=
EXTT16=
EXTT17=
PLAYORDER=
